<?xml version="1.0" encoding="iso-8859-1"?>
<!-- Generator: Adobe Illustrator 19.0.0, SVG Export Plug-In . SVG Version: 6.00 Build 0)  -->
<svg version="1.1" id="Capa_1" xmlns="http://www.w3.org/2000/svg" xmlns:xlink="http://www.w3.org/1999/xlink" x="0px" y="0px"
	 viewBox="0 0 512.001 512.001" style="enable-background:new 0 0 512.001 512.001;" xml:space="preserve">
<g>
	<g>
		<path d="M496.986,103.854H322.631c-1.845-4.296-4.517-8.319-8.02-11.821l-27.558-27.558c-7.167-7.168-16.698-11.116-26.836-11.116
			c-10.137,0-19.667,3.948-26.836,11.115l-27.558,27.558c-3.502,3.502-6.175,7.525-8.02,11.821H15.015
			C6.723,103.853,0,110.575,0,118.867c0,8.292,6.723,15.016,15.015,15.016h182.79c1.845,4.296,4.517,8.319,8.02,11.821
			l27.558,27.558c7.168,7.168,16.699,11.115,26.836,11.115c10.138,0,19.668-3.948,26.836-11.115l27.558-27.558
			c3.502-3.502,6.175-7.525,8.02-11.821h174.354c8.292,0,15.015-6.723,15.015-15.015S505.279,103.854,496.986,103.854z
			 M293.379,124.472l-27.558,27.558c-1.496,1.496-3.485,2.32-5.602,2.32c-2.117,0-4.106-0.824-5.602-2.32l-27.558-27.558
			c-3.089-3.09-3.089-8.116,0-11.205l27.558-27.557c1.496-1.496,3.485-2.32,5.602-2.32c2.117,0,4.106,0.824,5.602,2.32
			l27.558,27.558C296.468,116.357,296.468,121.383,293.379,124.472z"/>
	</g>
</g>
<g>
	<g>
		<path d="M496.985,242.989H204.109c-1.878-4.358-4.585-8.365-8.042-11.821l-27.557-27.558
			c-7.168-7.168-16.699-11.115-26.836-11.115c-10.138,0-19.668,3.948-26.836,11.115l-27.558,27.558
			c-3.502,3.502-6.175,7.525-8.02,11.821H15.015C6.723,242.989,0,249.711,0,258.003s6.723,15.015,15.015,15.015h64.247
			c1.845,4.296,4.517,8.319,8.02,11.821l27.558,27.558c7.167,7.168,16.698,11.116,26.836,11.116
			c10.137,0,19.667-3.948,26.836-11.116l27.557-27.557c3.456-3.456,6.164-7.463,8.042-11.821h292.876
			c8.292,0,15.015-6.723,15.015-15.015C512.001,249.712,505.277,242.989,496.985,242.989z M174.834,263.606l-27.557,27.557
			c-1.496,1.496-3.485,2.32-5.602,2.32c-2.117,0-4.106-0.824-5.602-2.32l-27.558-27.558c-3.089-3.089-3.089-8.115,0-11.204
			l27.558-27.558c1.496-1.496,3.485-2.32,5.602-2.32c2.117,0,4.106,0.824,5.602,2.32l27.557,27.558
			c1.496,1.496,2.32,3.485,2.32,5.601C177.154,260.119,176.33,262.109,174.834,263.606z"/>
	</g>
</g>
<g>
	<g>
		<path d="M496.985,378.12h-74.257c-1.845-4.296-4.517-8.319-8.02-11.821l-27.558-27.558c-7.167-7.168-16.698-11.116-26.836-11.116
			c-10.137,0-19.667,3.948-26.836,11.115l-27.558,27.558c-3.502,3.502-6.175,7.525-8.02,11.821H15.015
			C6.723,378.119,0,384.842,0,393.134c0,8.292,6.723,15.015,15.015,15.015h282.888c1.845,4.296,4.517,8.319,8.02,11.821
			l27.558,27.558c7.168,7.168,16.699,11.115,26.836,11.115c10.138,0,19.668-3.948,26.836-11.115l27.558-27.558
			c3.502-3.502,6.175-7.525,8.02-11.821h74.257c8.292,0,15.015-6.723,15.015-15.015C512.001,384.842,505.277,378.12,496.985,378.12z
			 M393.476,398.737l-27.558,27.558c-1.496,1.496-3.485,2.32-5.602,2.32c-2.117,0-4.106-0.824-5.602-2.32l-27.558-27.558
			c-3.089-3.089-3.089-8.115,0-11.204l27.558-27.557c1.496-1.496,3.485-2.32,5.602-2.32c2.117,0,4.106,0.824,5.602,2.32
			l27.558,27.558C396.565,390.622,396.565,395.648,393.476,398.737z"/>
	</g>
</g>
<g>
</g>
<g>
</g>
<g>
</g>
<g>
</g>
<g>
</g>
<g>
</g>
<g>
</g>
<g>
</g>
<g>
</g>
<g>
</g>
<g>
</g>
<g>
</g>
<g>
</g>
<g>
</g>
<g>
</g>
</svg>
