<svg viewBox="0 0 513 513.06667" xmlns="http://www.w3.org/2000/svg"><path d="m389.367188 513.066406c-8.832032 0-16-7.167968-16-16v-331.390625c0-14.765625-11.96875-26.773437-26.667969-26.773437h-330.664063c-8.832031 0-15.9999998-7.167969-15.9999998-16 0-8.832032 7.1679688-16 15.9999998-16h330.664063c32.363281 0 58.667969 26.34375 58.667969 58.773437v331.390625c0 8.832032-7.167969 16-16 16zm0 0"/><path d="m496.035156 406.144531h-330.667968c-32.363282 0-58.667969-26.347656-58.667969-58.753906v-331.390625c0-8.832031 7.167969-16 16-16s16 7.167969 16 16v331.390625c0 14.742187 11.96875 26.753906 26.667969 26.753906h330.667968c8.832032 0 16 7.167969 16 16s-7.167968 16-16 16zm0 0"/></svg>