<?xml version="1.0" encoding="iso-8859-1"?>
<!-- Generator: Adobe Illustrator 18.0.0, SVG Export Plug-In . SVG Version: 6.00 Build 0)  -->
<!DOCTYPE svg PUBLIC "-//W3C//DTD SVG 1.1//EN" "http://www.w3.org/Graphics/SVG/1.1/DTD/svg11.dtd">
<svg version="1.1" id="Capa_1" xmlns="http://www.w3.org/2000/svg" xmlns:xlink="http://www.w3.org/1999/xlink" x="0px" y="0px"
	 viewBox="0 0 492.154 492.154" style="enable-background:new 0 0 492.154 492.154;" xml:space="preserve">
<path d="M404.062,180.844c0.258-3.766,0.58-7.525,0.58-11.355c0-87.422-71.126-158.548-158.574-158.548
	c-87.411,0-158.538,71.126-158.538,158.548c0,3.83,0.323,7.58,0.581,11.346C35.982,206.834,0,260.557,0,322.673
	c0,87.416,71.126,158.541,158.56,158.541c32.334,0,62.415-9.782,87.526-26.477c25.111,16.694,55.187,26.477,87.526,26.477
	c87.415,0,158.542-71.126,158.542-158.541C492.154,260.564,456.186,206.841,404.062,180.844z M246.086,413.015
	c-23.53-22.805-38.239-54.625-38.369-89.866c12.305,3.073,25.111,4.888,38.351,4.888c13.258,0,26.064-1.815,38.387-4.888
	C284.326,358.39,269.617,390.21,246.086,413.015z M246.068,295.417c-11.821,0-23.222-1.751-34.094-4.814
	c5.933-22.492,17.869-42.546,34.112-58.272c16.239,15.725,28.161,35.773,34.112,58.272
	C269.327,293.667,257.907,295.417,246.068,295.417z M181.704,277.514c-27.888-16.683-48.756-43.795-57.242-75.954
	c10.853-3.073,22.259-4.823,34.098-4.823c22.172,0,42.994,5.814,61.125,15.927C202.25,230.72,189.042,252.847,181.704,277.514z
	 M272.487,212.664c18.127-10.114,38.935-15.927,61.125-15.927c11.839,0,23.24,1.751,34.112,4.823
	c-8.499,32.159-29.372,59.271-57.256,75.963C303.116,252.847,289.923,230.72,272.487,212.664z M246.068,43.559
	c69.288,0,125.673,56.231,125.931,125.446c-12.323-3.073-25.129-4.888-38.387-4.888c-32.339,0-62.415,9.782-87.526,26.474
	c-25.11-16.692-55.192-26.474-87.526-26.474c-13.258,0-26.064,1.815-38.387,4.888C120.445,99.79,176.816,43.559,246.068,43.559z
	 M32.628,322.673c0-45.901,24.756-86.027,61.545-108.042c12.613,42.376,42.515,77.262,81.463,96.688
	c-0.271,3.757-0.562,7.523-0.562,11.353c0,42.708,17.045,81.457,44.611,109.995c-18.132,10.112-38.954,15.928-61.125,15.928
	C89.11,448.595,32.628,392.106,32.628,322.673z M333.612,448.595c-22.19,0-42.999-5.816-61.125-15.928
	c27.547-28.538,44.61-67.287,44.61-109.995c0-3.831-0.304-7.596-0.58-11.353c38.967-19.426,68.869-54.313,81.478-96.68
	c36.788,22.013,61.549,62.132,61.549,108.033C459.543,392.106,403.062,448.595,333.612,448.595z"/>
<g>
</g>
<g>
</g>
<g>
</g>
<g>
</g>
<g>
</g>
<g>
</g>
<g>
</g>
<g>
</g>
<g>
</g>
<g>
</g>
<g>
</g>
<g>
</g>
<g>
</g>
<g>
</g>
<g>
</g>
</svg>
