<svg viewBox="0 0 512 512" width="512pt" xmlns="http://www.w3.org/2000/svg"><path d="m304 272h-266.667969c-8.832031 0-16-7.167969-16-16s7.167969-16 16-16h266.667969c8.832031 0 16 7.167969 16 16s-7.167969 16-16 16zm0 0"/><path d="m314.667969 512h-288c-14.699219 0-26.667969-11.96875-26.667969-26.667969 0-7.039062 2.792969-13.695312 7.894531-18.773437.296875-.296875 2.109375-1.855469 2.410157-2.132813l134.976562-135.039062c12.4375-12.800781 27.796875-11.605469 37.949219-2.558594l149.570312 138.878906c5.269531 4.734375 8.53125 12.136719 8.53125 19.625 0 14.699219-11.964843 26.667969-26.664062 26.667969zm-3.605469-22.828125c.042969.042969.105469.109375.167969.171875zm-271.167969-9.171875h261.269531l-135.574218-125.886719zm0 0"/><path d="m165.332031 192c-6.996093 0-13.652343-2.792969-18.75-7.851562-.320312-.296876-1.878906-2.132813-2.175781-2.453126l-135.019531-134.976562c-6.59375-6.398438-9.386719-13.054688-9.386719-20.050781 0-14.699219 11.96875-26.667969 26.667969-26.667969h288c14.699219 0 26.664062 11.96875 26.664062 26.667969 0 7.570312-3.15625 14.78125-8.703125 19.773437l-149.164062 138.519532c-5.183594 4.605468-11.519532 7.039062-18.132813 7.039062zm4.695313-29.589844h.210937zm-130.324219-130.410156 125.992187 125.78125 135.46875-125.78125zm271.335937-9.171875c-.042968.042969-.085937.082031-.128906.105469zm0 0"/><path d="m357.332031 234.667969c-8.832031 0-16-7.167969-16-16v-138.667969c0-8.832031 7.167969-16 16-16h138.667969c8.832031 0 16 7.167969 16 16s-7.167969 16-16 16h-122.667969v122.667969c0 8.832031-7.167969 16-16 16zm0 0"/><path d="m357.332031 448c-6.632812 0-12.839843-4.160156-15.125-10.773438-2.878906-8.363281 1.558594-17.449218 9.898438-20.351562 70.125-24.191406 117.226562-88.832031 117.226562-160.875s-47.101562-136.683594-117.226562-160.875c-8.363281-2.878906-12.796875-11.988281-9.898438-20.351562 2.882813-8.363282 11.949219-12.777344 20.351563-9.898438 83.007812 28.628906 138.773437 105.429688 138.773437 191.125s-55.765625 162.496094-138.773437 191.125c-1.726563.597656-3.496094.875-5.226563.875zm0 0"/></svg>