<svg viewBox="0 0 512 512" width="512pt" xmlns="http://www.w3.org/2000/svg"><path d="m256 490.667969c-8.832031 0-16-7.167969-16-16v-266.667969c0-8.832031 7.167969-16 16-16s16 7.167969 16 16v266.667969c0 8.832031-7.167969 16-16 16zm0 0"/><path d="m432 170.667969h-138.667969c-8.832031 0-16-7.167969-16-16s7.167969-16 16-16h122.667969v-122.667969c0-8.832031 7.167969-16 16-16s16 7.167969 16 16v138.667969c0 8.832031-7.167969 16-16 16zm0 0"/><path d="m432 170.667969c-6.65625 0-12.84375-4.160157-15.125-10.773438-24.191406-70.125-88.832031-117.226562-160.875-117.226562s-136.683594 47.101562-160.875 117.226562c-2.878906 8.363281-11.96875 12.796875-20.351562 9.898438-8.339844-2.882813-12.777344-11.992188-9.898438-20.351563 28.648438-83.007812 105.449219-138.773437 191.125-138.773437s162.476562 55.765625 191.125 138.773437c2.878906 8.359375-1.558594 17.449219-9.898438 20.351563-1.726562.597656-3.5.875-5.226562.875zm0 0"/><path d="m26.667969 512c-14.699219 0-26.667969-11.96875-26.667969-26.667969v-288c0-14.699219 11.96875-26.664062 26.667969-26.664062 7.015625 0 13.695312 2.792969 18.773437 7.890625.277344.277344 1.8125 2.027344 2.066406 2.328125l135.125 135.058593c6.550782 6.316407 9.367188 12.992188 9.367188 20.054688 0 6.613281-2.410156 12.949219-6.828125 17.898438l-138.878906 149.566406c-4.734375 5.269531-12.117188 8.535156-19.625 8.535156zm-3.863281-30.273438c-.042969.042969-.105469.109376-.171876.171876zm9.195312-271.167968v261.292968l125.886719-135.574218zm129.492188 129.324218h.234374zm0 0"/><path d="m485.332031 512c-7.507812 0-14.890625-3.265625-19.816406-8.726562l-138.476563-149.140626c-4.628906-5.183593-7.039062-11.519531-7.039062-18.132812 0-7.082031 2.835938-13.78125 7.957031-18.835938.257813-.257812 1.984375-1.773437 2.242188-2.007812l135.082031-135.101562c19.730469-20.394532 46.71875-4.460938 46.71875 17.277343v288c0 14.699219-11.96875 26.667969-26.667969 26.667969zm3.691407-30.441406.148437.148437c-.042969-.0625-.082031-.105469-.148437-.148437zm-134.804688-145.195313 125.78125 135.464844v-261.460937zm0 0"/></svg>