<svg viewBox="0 -19 512 512" xmlns="http://www.w3.org/2000/svg"><path d="m256 256c-41.171875 0-74.667969-33.492188-74.667969-74.667969 0-41.171875 33.496094-74.664062 74.667969-74.664062s74.667969 33.492187 74.667969 74.664062c0 41.175781-33.496094 74.667969-74.667969 74.667969zm0-117.332031c-23.53125 0-42.667969 19.132812-42.667969 42.664062s19.136719 42.667969 42.667969 42.667969 42.667969-19.136719 42.667969-42.667969-19.136719-42.664062-42.667969-42.664062zm0 0"/><path d="m261.332031 432c-146.539062 0-261.332031-58.558594-261.332031-133.332031 0-20.140625 3.328125-35.351563 20.351562-53.421875 6.082032-6.441406 16.191407-6.71875 22.636719-.679688 6.417969 6.058594 6.738281 16.191406.679688 22.632813-9.984375 10.5625-11.667969 17.132812-11.667969 31.46875 0 48.9375 92.160156 101.332031 229.332031 101.332031 8.832031 0 16 7.167969 16 16s-7.167969 16-16 16zm0 0"/><path d="m304.746094 429.140625c-8.0625 0-14.996094-6.078125-15.894532-14.292969-.9375-8.789062 5.398438-16.660156 14.210938-17.621094 105.832031-11.390624 176.9375-57.386718 176.9375-93.226562 0-18.175781-3.414062-24.171875-13.289062-38.871094-4.929688-7.335937-2.988282-17.277344 4.371093-22.207031 7.316407-4.949219 17.28125-2.984375 22.207031 4.375 11.628907 17.34375 18.710938 29.800781 18.710938 56.703125 0 59.648438-86.441406 112.234375-205.523438 125.035156-.578124.0625-1.152343.105469-1.730468.105469zm0 0"/><path d="m400 320h-288c-26.476562 0-48-21.523438-48-48v-160c0-26.476562 21.523438-48 48-48h48.789062l21.675782-43.371094c6.355468-12.714844 19.15625-20.628906 33.386718-20.628906h80.296876c14.230468 0 27.03125 7.914062 33.386718 20.628906l21.675782 43.371094h48.789062c26.476562 0 48 21.523438 48 48v160c0 26.476562-21.523438 48-48 48zm-288-224c-8.832031 0-16 7.167969-16 16v160c0 8.832031 7.167969 16 16 16h288c8.832031 0 16-7.167969 16-16v-160c0-8.832031-7.167969-16-16-16h-58.667969c-6.058593 0-11.605469-3.433594-14.3125-8.851562l-26.113281-52.203126c-.894531-1.816406-2.730469-2.945312-4.757812-2.945312h-80.296876c-2.027343 0-3.863281 1.128906-4.78125 2.945312l-26.089843 52.203126c-2.707031 5.417968-8.253907 8.851562-14.3125 8.851562zm0 0"/><path d="m208 474.667969c-4.691406 0-9.34375-2.050781-12.5-5.996094-5.527344-6.910156-4.417969-16.960937 2.496094-22.484375l37.714844-30.1875-37.714844-30.1875c-6.890625-5.523438-8-15.574219-2.496094-22.484375 5.503906-6.890625 15.550781-8.019531 22.484375-2.496094l53.332031 42.667969c3.796875 3.050781 6.015625 7.636719 6.015625 12.5s-2.21875 9.449219-5.992187 12.480469l-53.335938 42.667969c-2.964844 2.367187-6.484375 3.519531-10.003906 3.519531zm0 0"/></svg>