<?xml version="1.0" encoding="iso-8859-1"?>
<!-- Generator: Adobe Illustrator 19.0.0, SVG Export Plug-In . SVG Version: 6.00 Build 0)  -->
<svg version="1.1" id="Capa_1" xmlns="http://www.w3.org/2000/svg" xmlns:xlink="http://www.w3.org/1999/xlink" x="0px" y="0px"
	 viewBox="0 0 512 512" style="enable-background:new 0 0 512 512;" xml:space="preserve">
<g>
	<g>
		<path d="M507.628,143.627l-68.589-69.192c-4.285-4.321-10.741-5.621-16.354-3.294c-5.613,2.329-9.274,7.827-9.274,13.928v138.383
			c0,6.1,3.662,11.599,9.274,13.928c5.597,2.322,12.058,1.04,16.354-3.294l68.589-69.192
			C513.457,159.014,513.457,149.507,507.628,143.627z"/>
	</g>
</g>
<g>
	<g>
		<path d="M497,411.862H150.5c-66.444,0-120.5-54.305-120.5-121.055s54.056-121.055,120.5-121.055h232.911v-30.138H150.5
			C67.514,139.614,0,207.438,0,290.807C0,374.175,67.514,442,150.5,442H497c8.284,0,15-6.747,15-15.069
			C512,418.609,505.284,411.862,497,411.862z"/>
	</g>
</g>
<g>
</g>
<g>
</g>
<g>
</g>
<g>
</g>
<g>
</g>
<g>
</g>
<g>
</g>
<g>
</g>
<g>
</g>
<g>
</g>
<g>
</g>
<g>
</g>
<g>
</g>
<g>
</g>
<g>
</g>
</svg>
