<svg height="512pt" viewBox="0 0 512 512" width="512pt" xmlns="http://www.w3.org/2000/svg"><path d="m0 176c0 8.832031 7.167969 16 16 16h138.667969c6.484375 0 12.308593-3.902344 14.78125-9.878906 2.476562-5.972656 1.109375-12.863282-3.476563-17.429688l-59.96875-59.964844c39.296875-39.0625 92.546875-62.058593 149.996094-62.058593 117.632812 0 213.332031 95.699219 213.332031 213.332031 0 11.777344 9.539063 21.332031 21.335938 21.332031s21.332031-9.554687 21.332031-21.332031c0-141.164062-114.835938-256-256-256-69.011719 0-133.207031 27.390625-180.375 74.347656l-48.316406-48.320312c-4.589844-4.585938-11.457032-5.953125-17.429688-3.476563-5.976562 2.472657-9.878906 8.320313-9.878906 14.78125zm0 0"/><path d="m512 336c0-8.832031-7.167969-16-16-16h-138.667969c-6.484375 0-12.308593 3.902344-14.78125 9.878906-2.453125 5.972656-1.109375 12.863282 3.476563 17.429688l59.96875 59.964844c-39.296875 39.0625-92.546875 62.058593-149.996094 62.058593-117.632812 0-213.332031-95.699219-213.332031-213.332031 0-11.777344-9.539063-21.332031-21.335938-21.332031s-21.332031 9.554687-21.332031 21.332031c0 141.164062 114.835938 256 256 256 69.011719 0 133.207031-27.390625 180.375-74.347656l48.316406 48.320312c3.074219 3.074219 7.148438 4.695313 11.308594 4.695313 2.070312 0 4.136719-.40625 6.121094-1.21875 5.976562-2.472657 9.878906-8.320313 9.878906-14.78125zm0 0"/></svg>