<?xml version="1.0" encoding="iso-8859-1"?>
<!-- Generator: Adobe Illustrator 19.0.0, SVG Export Plug-In . SVG Version: 6.00 Build 0)  -->
<svg version="1.1" id="Capa_1" xmlns="http://www.w3.org/2000/svg" xmlns:xlink="http://www.w3.org/1999/xlink" x="0px" y="0px"
	 viewBox="0 0 512 512" style="enable-background:new 0 0 512 512;" xml:space="preserve">
<g>
	<g>
		<g>
			<path d="M454.624,0H0v512h512V57.376L454.624,0z M480,480H32V32h32v160h64v-32H96V32h288v128h-96v32h128V32h25.376L480,70.624
				V480z"/>
			<rect x="160" y="160" width="32" height="32"/>
			<rect x="224" y="160" width="32" height="32"/>
			<path d="M256,256c-53.019,0-96,42.981-96,96s42.981,96,96,96s96-42.981,96-96C351.947,299.003,308.997,256.053,256,256z M256,416
				c-35.346,0-64-28.654-64-64c0-35.346,28.654-64,64-64c35.346,0,64,28.654,64,64C320,387.346,291.346,416,256,416z"/>
		</g>
	</g>
</g>
<g>
</g>
<g>
</g>
<g>
</g>
<g>
</g>
<g>
</g>
<g>
</g>
<g>
</g>
<g>
</g>
<g>
</g>
<g>
</g>
<g>
</g>
<g>
</g>
<g>
</g>
<g>
</g>
<g>
</g>
</svg>
