<?xml version="1.0" encoding="iso-8859-1"?>
<!-- Generator: Adobe Illustrator 19.0.0, SVG Export Plug-In . SVG Version: 6.00 Build 0)  -->
<svg version="1.1" id="Capa_1" xmlns="http://www.w3.org/2000/svg" xmlns:xlink="http://www.w3.org/1999/xlink" x="0px" y="0px"
	 viewBox="0 0 507.184 507.184" style="enable-background:new 0 0 507.184 507.184;" xml:space="preserve">
<g>
	<g>
		<g>
			<path d="M151.6,67.999l-13.888-28.848c-10.575,5.087-20.614,11.219-29.968,18.304l19.312,25.52
				C134.717,77.177,142.94,72.16,151.6,67.999z"/>
			<path d="M213.904,53.839c76.746,0.097,139.93,60.368,143.648,137.024l-20.336-20.336l-22.624,22.624l59.312,59.312l59.312-59.312
				l-22.624-22.624l-21.008,21.008c-3.493-97.139-85.071-173.055-182.21-169.562c-12.34,0.444-24.598,2.185-36.574,5.194
				l7.808,31.024C190.153,55.311,202.005,53.85,213.904,53.839z"/>
			<path d="M105.968,102.559l-24-21.248c-7.769,8.804-14.64,18.36-20.512,28.528l27.712,16
				C93.97,117.533,99.599,109.734,105.968,102.559z"/>
			<path d="M371.888,282.175l-22.624,22.624L461.92,417.471l-22.688,22.688l-129.6-129.424l-10.896,7.2
				c-66.153,43.888-155.359,25.837-199.247-40.316c-9.044-13.633-15.695-28.709-19.665-44.58L96,249.215l22.624-22.624
				l-59.312-59.376L0,226.527l22.624,22.624l23.152-23.152c15.442,95.833,105.649,161.004,201.482,145.562
				c20.306-3.272,39.879-10.082,57.83-20.122l134.16,133.888l67.936-67.904L371.888,282.175z"/>
		</g>
	</g>
</g>
<g>
</g>
<g>
</g>
<g>
</g>
<g>
</g>
<g>
</g>
<g>
</g>
<g>
</g>
<g>
</g>
<g>
</g>
<g>
</g>
<g>
</g>
<g>
</g>
<g>
</g>
<g>
</g>
<g>
</g>
</svg>
