<?xml version="1.0" encoding="iso-8859-1"?>
<!-- Generator: Adobe Illustrator 19.0.0, SVG Export Plug-In . SVG Version: 6.00 Build 0)  -->
<svg version="1.1" id="Capa_1" xmlns="http://www.w3.org/2000/svg" xmlns:xlink="http://www.w3.org/1999/xlink" x="0px" y="0px"
	 viewBox="0 0 512.002 512.002" style="enable-background:new 0 0 512.002 512.002;" xml:space="preserve">
<g>
	<g>
		<g>
			<polygon points="32,32.163 352,32.163 352,128.163 384,128.163 384,0.163 0,0.163 0,384.163 128,384.163 128,352.163 32,352.163 
							"/>
			<path d="M447.408,199.907c-9.084-7.433-18.887-13.94-29.264-19.424L403.2,208.771c8.508,4.492,16.547,9.82,24,15.904
				L447.408,199.907z"/>
			<path d="M491.68,253.987c-5.492-10.362-11.999-20.154-19.424-29.232l-24.768,20.208c6.121,7.446,11.482,15.486,16,24
				L491.68,253.987z"/>
			<path d="M504.912,286.563l-30.704,9.008c22.334,76.237-21.363,156.144-97.6,178.477c-76.237,22.334-156.144-21.363-178.477-97.6
				s21.363-156.144,97.6-178.477c26.404-7.735,54.473-7.735,80.877,0l9.008-30.704c-93.181-27.295-190.845,26.115-218.141,119.296
				s26.115,190.845,119.296,218.141c93.181,27.295,190.846-26.115,218.141-119.296C514.365,353.137,514.365,318.833,504.912,286.563
				z"/>
		</g>
	</g>
</g>
<g>
</g>
<g>
</g>
<g>
</g>
<g>
</g>
<g>
</g>
<g>
</g>
<g>
</g>
<g>
</g>
<g>
</g>
<g>
</g>
<g>
</g>
<g>
</g>
<g>
</g>
<g>
</g>
<g>
</g>
</svg>
