<svg viewBox="-21 0 426 426.66667" xmlns="http://www.w3.org/2000/svg"><path d="m363 0h-85.332031c-11.777344 0-21.335938 9.535156-21.335938 21.332031s9.558594 21.335938 21.335938 21.335938h21.332031v170.664062c0 58.816407-47.851562 106.667969-106.667969 106.667969-58.816406 0-106.664062-47.851562-106.664062-106.667969v-170.664062h21.332031c11.777344 0 21.332031-9.539063 21.332031-21.335938s-9.554687-21.332031-21.332031-21.332031h-85.332031c-11.777344 0-21.335938 9.535156-21.335938 21.332031s9.558594 21.335938 21.335938 21.335938h21.332031v170.664062c0 82.328125 66.988281 149.335938 149.332031 149.335938 82.347657 0 149.335938-67.007813 149.335938-149.335938v-170.664062h21.332031c11.777344 0 21.332031-9.539063 21.332031-21.335938s-9.554687-21.332031-21.332031-21.332031zm0 0"/><path d="m341.667969 384h-298.667969c-11.777344 0-21.332031 9.535156-21.332031 21.332031s9.554687 21.335938 21.332031 21.335938h298.667969c11.773437 0 21.332031-9.539063 21.332031-21.335938s-9.558594-21.332031-21.332031-21.332031zm0 0"/></svg>