<?xml version="1.0" encoding="iso-8859-1"?>
<!-- Generator: Adobe Illustrator 19.0.0, SVG Export Plug-In . SVG Version: 6.00 Build 0)  -->
<svg version="1.1" id="Capa_1" xmlns="http://www.w3.org/2000/svg" xmlns:xlink="http://www.w3.org/1999/xlink" x="0px" y="0px"
	 viewBox="0 0 512 512" style="enable-background:new 0 0 512 512;" xml:space="preserve">
<g>
	<g>
		<path d="M89.315,71.141c-5.613-2.327-12.069-1.027-16.354,3.294L4.372,143.627c-5.829,5.88-5.829,15.387,0,21.267l68.589,69.192
			c4.296,4.334,10.757,5.616,16.354,3.294c5.612-2.329,9.274-7.828,9.274-13.928V85.069C98.589,78.968,94.928,73.47,89.315,71.141z"
			/>
	</g>
</g>
<g>
	<g>
		<path d="M361.5,139.614H128.589v30.138H361.5c66.444,0,120.5,54.305,120.5,121.055s-54.056,121.055-120.5,121.055H15
			c-8.284,0-15,6.747-15,15.069C0,435.253,6.716,442,15,442h346.5c82.986,0,150.5-67.825,150.5-151.193
			S444.486,139.614,361.5,139.614z"/>
	</g>
</g>
<g>
</g>
<g>
</g>
<g>
</g>
<g>
</g>
<g>
</g>
<g>
</g>
<g>
</g>
<g>
</g>
<g>
</g>
<g>
</g>
<g>
</g>
<g>
</g>
<g>
</g>
<g>
</g>
<g>
</g>
</svg>
